<svg width="200" height="200" viewBox="0 0 200 200" fill="none" xmlns="http://www.w3.org/2000/svg">
<circle cx="100" cy="100" r="92" fill="#ECF0F1" stroke="#27AE60" stroke-width="16"/>
<path d="M142.513 77.3869C141.231 61.2197 123.081 62.8712 123.081 62.8712C115.421 49.3619 103.453 59.1469 103.453 59.1469C94.2583 45.9072 82.7316 58.1764 82.7316 58.1764C62.8544 56.0317 63.6249 72.2867 63.6249 72.2867C63.1578 77.4548 66.4258 93.4402 66.4258 93.4402C63.4772 84.2264 57.083 91.8746 57.083 91.8746C49.2176 104.012 55.1366 110.656 55.1366 110.656C65.777 123.129 88.451 138.1 88.451 138.1C96.6619 142.804 93.1883 147 93.1883 147L142.849 138.793L143.988 129.371C151.538 106.534 142.513 77.3869 142.513 77.3869Z" fill="#3B4262"/>
</svg>
