<svg width="200" height="200" viewBox="0 0 200 200" fill="none" xmlns="http://www.w3.org/2000/svg">
<circle cx="100" cy="100" r="92" fill="#ECF0F1" stroke="#F1C40F" stroke-width="16"/>
<path d="M143.709 66.0683C142.946 65.7681 142.126 65.6364 141.307 65.6822C140.196 65.7602 139.301 66.2106 138.769 66.9495C135.642 71.3323 133.079 79.6086 131.012 86.2608C130.065 89.3354 128.79 93.4511 127.87 95.4047C126.909 89.932 127.995 69.8837 128.416 62.1631L128.422 62.0383C128.714 56.6748 128.753 55.7332 128.691 55.3198C128.227 52.3778 127.047 50.4457 125.184 49.582C123.301 48.7047 120.856 49.0946 118.22 50.6797C116.901 51.479 116.534 54.2202 115.402 66.6473L115.398 66.7019C114.774 73.5296 113.335 89.2516 111.567 91.8719C109.573 88.2066 106.828 67.394 105.643 58.3847C104.814 52.0756 104.331 48.4532 104.005 47.3594C103.323 45.0666 100.438 43.117 97.5818 43.0078C95.2036 42.8908 93.2541 44.0996 92.3223 46.2013C90.5795 48.1412 91.1955 54.5692 93.1216 69.796C94.0378 77.0448 95.9287 92.0123 94.7396 93.6929C92.3632 93.4336 88.287 84.0577 82.6239 65.8148C81.0332 60.7067 80.542 59.1704 80.0546 58.4978C79.0916 56.1543 75.8205 54.347 72.8885 54.5517C72.6419 54.5688 72.3965 54.6007 72.1536 54.6472C70.6194 54.9513 67.1163 56.3648 67.8649 62.8864C69.9313 71.927 72.1789 78.5636 74.3584 85.0072L74.4032 85.1358C75.7074 88.9962 76.9414 92.642 78.0876 96.6875C80.7876 106.241 79.7368 112.168 79.7252 112.236C79.6355 112.844 79.4464 113.217 79.1637 113.347C79.0434 113.399 78.9146 113.429 78.7836 113.435C77.9258 113.494 76.6431 112.928 75.9823 112.558C74.4695 109.668 66.9447 95.8999 60.1257 93.9892L59.88 93.9171L59.6325 93.9405C57.1314 94.1764 55.2931 95.122 54.1682 96.7499C52.3865 99.3235 53.1253 102.603 53.3027 103.262L53.4041 103.496C53.4587 103.595 58.9287 113.566 59.7748 118.204C60.5039 122.181 64.2799 126.49 67.3171 129.952L67.4418 130.095C68.4322 131.226 69.286 132.206 69.9605 133.113C78.7699 142.302 92.7005 150.03 92.8136 150.094C94.5524 151.375 95.5174 152.615 95.6207 153.682C95.6683 154.085 95.5563 154.491 95.3088 154.812L95.0067 155.128L96.9327 157L133.685 154.419L135.252 147.236C140.099 126.956 139.087 109.662 139.069 109.549C139.089 108.912 140.446 102.759 141.537 97.7871L141.571 97.6604C143.748 87.7562 146.454 75.4344 146.974 70.7494C147.2 68.7451 145.918 66.9047 143.709 66.0683Z" fill="#3B4262"/>
</svg>
