<svg width="200" height="200" viewBox="0 0 200 200" fill="none" xmlns="http://www.w3.org/2000/svg">
<circle cx="100" cy="100" r="92" fill="#ECF0F1" stroke="#2980B9" stroke-width="16"/>
<path d="M78.3831 94.398L89.5555 78.7618C84.9115 77.9906 76.3836 77.8197 69.3999 84.7729C58.3892 95.734 53.9292 119.41 53 125.143L80.983 153C86.0209 152.569 108.325 149.605 129.818 128.212C130.045 127.75 135.282 123.9 131 119.639C128.956 117.604 125.576 117.643 123.489 119.721C122.426 120.78 120.774 120.793 119.733 119.758C118.693 118.723 118.707 117.077 119.77 116.019L127.365 108.459C131.223 104.618 127.587 98.1366 122.199 99.6937L115.983 104.991C114.848 105.976 113.158 105.807 112.225 104.731C111.261 103.622 111.467 101.938 112.566 100.991C134.284 82.0228 131.112 84.3065 145.087 71.2698C150.307 66.9421 143.739 59.2903 138.595 63.67L104.792 93.9298C103.809 94.7622 102.302 94.7789 101.336 93.8926C100.219 92.9319 100.193 91.5476 100.923 90.455L124.5 53.9686C127.945 49.3233 121.164 44.1632 117.533 48.8457L82.6741 97.3803C81.8341 98.5881 80.1393 98.8668 78.9852 98.0214C78.7037 97.8263 78.4642 97.5766 78.281 97.2872C78.0978 96.9978 77.9745 96.6746 77.9185 96.3367C77.8626 95.9987 77.875 95.653 77.9551 95.32C78.0353 94.987 78.1814 94.6735 78.385 94.398H78.3831Z" fill="#3B4262"/>
</svg>
